{
  "title": "The Fault In Our Stars 2014 HDCAM FIRST CAM x264 Pimp4003",
  "uid": 10372138,
  "size": 196816587,
  "categoryP": "video",
  "categoryS": "tv_shows",
  "magnet": "?xt=urn:btih:55da46a75c806cd077ea6ad63fd7259dcb7c35a4&amp;dn=The+Fault+In+Our+Stars+2014+HDCAM+FIRST+CAM+x264+Pimp4003&amp;tr=udp%3A%2F%2Ftracker.openbittorrent.com%3A80&amp;tr=udp%3A%2F%2Fopen.demonii.com%3A1337&amp;tr=udp%3A%2F%2Ftracker.coppersurfer.tk%3A6969&amp;tr=udp%3A%2F%2Fexodus.desync.com%3A6969",
  "seeders": 129,
  "leechers": 0,
  "uploader": "shawnmurthy",
  "files": 2,
  "time": 1402946801,
  "description": "THIS IS MOVIE BUT FILE SIZE APPARENTLY IS VERY SMALL SO I PUT IT IN TV SECTION...PLEASE MOD OR SOMEONE FIX THIS PLEASE. THANKS\n\nSOURCE IS SpEcTrE....THIS SOURCE WAS VERY GRAINY AND THE AUDIO IS LOW..DID THE BEST I COULD AND MADE IT WATCHABLE...ENJOY...PIMP4003 OUT\n\nSCREENSHOTS\n &lt;a href=&quot;\nhttp://pimp4003.net/torrents.php?id=55da46a75c806cd077ea6ad63fd7259dcb7c35a4&quot; rel=&quot;nofollow&quot; target=&quot;_NEW&quot;&gt;\nhttp://pimp4003.net/torrents.php?id=55da46a75c806cd077ea6ad63fd7259dcb7c35a4&lt;/a&gt;\n\nThe Fault In Our Stars 2014 HDCAM FIRST CAM x264 Pimp4003\n &lt;a href=&quot;\nhttp://www.imdb.com/title/tt2582846/&quot; rel=&quot;nofollow&quot; target=&quot;_NEW&quot;&gt;\nhttp://www.imdb.com/title/tt2582846/&lt;/a&gt;\n\nHazel and Gus are two teenagers who share an acerbic wit, a disdain for the conventional, and a love that sweeps them on a journey. Their relationship is all the more miraculous given that Hazel's other constant companion is an oxygen tank, Gus jokes about his prosthetic leg, and they met and fell in love at a cancer support group.\n\nDirector: Josh Boone\nWriters: Scott Neustadter (screenplay), Michael H. Weber (screenplay), 1 more credit Â»\nStars: Shailene Woodley, Ansel Elgort, Nat Wolff | See full cast and crew Â»\n\nVideo\nID : 1\nFormat : AVC\nFormat/Info : Advanced Video Codec\nFormat profile : &lt;a class=&quot;__cf_email__&quot; href=&quot;/cdn-cgi/l/email-protection&quot; data-cfemail=&quot;7139181619313d425f41&quot;&gt;[email&amp;#160;protected]&lt;/a&gt;&lt;script cf-hash='f9e31' type=&quot;text/javascript&quot;&gt;\n/* &lt;![CDATA[ */!function(){try{var t=&quot;currentScript&quot;in document?document.currentScript:function(){for(var t=document.getElementsByTagName(&quot;script&quot;),e=t.length;e--;)if(t[e].getAttribute(&quot;cf-hash&quot;))return t[e]}();if(t&amp;&amp;t.previousSibling){var e,r,n,i,c=t.previousSibling,a=c.getAttribute(&quot;data-cfemail&quot;);if(a){for(e=&quot;&quot;,r=parseInt(a.substr(0,2),16),n=2;a.length-n;n+=2)i=parseInt(a.substr(n,2),16)^r,e+=String.fromCharCode(i);e=document.createTextNode(e),c.parentNode.replaceChild(e,c)}}}catch(u){}}();/* ]]&gt; */&lt;/script&gt;\nFormat settings, CABAC : Yes\nFormat settings, ReFrames : 4 frames\nCodec ID : avc1\nCodec ID/Info : Advanced Video Coding\nDuration : 1h 58mn\nBit rate : 116 Kbps\nWidth : 576 pixels\nHeight : 324 pixels\nDisplay aspect ratio : 16:9\nFrame rate mode : Constant\nFrame rate : 30.000 fps\nColor space : YUV\nChroma subsampling : 4:2:0\nBit depth : 8 bits\nScan type : Progressive\nBits/(Pixel*Frame) : 0.021\nStream size : 98.7 MiB (53%)\nWriting library : x264 core 140 r2 1ca7bb9\nEncoding settings : cabac=1 / ref=1 / deblock=1:0:0 / analyse=0x3:0x113 / me=hex / subme=2 / psy=1 / psy_rd=1.00:0.00 / mixed_ref=0 / me_range=16 / chroma_me=1 / trellis=0 / 8x8dct=1 / cqm=0 / deadzone=21,11 / fast_pskip=1 / chroma_qp_offset=0 / threads=24 / lookahead_threads=2 / sliced_threads=0 / nr=0 / decimate=1 / interlaced=0 / bluray_compat=0 / constrained_intra=0 / bframes=3 / b_pyramid=2 / b_adapt=1 / b_bias=0 / direct=1 / weightb=1 / open_gop=0 / weightp=1 / keyint=50 / keyint_min=5 / scenecut=40 / intra_refresh=0 / rc_lookahead=10 / rc=crf / mbtree=1 / crf=25.0 / qcomp=0.60 / qpmin=0 / qpmax=69 / qpstep=4 / ip_ratio=1.40 / aq=1:1.00\n\nAudio\nID : 2\nFormat : AAC\nFormat/Info : Advanced Audio Codec\nFormat profile : LC\nCodec ID : 40\nDuration : 1h 58mn\nDuration_LastFrame : -10ms\nBit rate mode : Constant\nBit rate : 96.0 Kbps\nChannel(s) : 2 channels\nChannel positions : Front: L R\nSampling rate : 44.1 KHz\nCompression mode : Lossy\nStream size : 81.6 MiB (43%)\n",
  "parsed": {
    "xt": "urn:btih:55da46a75c806cd077ea6ad63fd7259dcb7c35a4",
    "dn": "The Fault In Our Stars 2014 HDCAM FIRST CAM x264 Pimp4003",
    "tr": [
      "udp://exodus.desync.com:6969",
      "udp://open.demonii.com:1337",
      "udp://tracker.coppersurfer.tk:6969",
      "udp://tracker.openbittorrent.com:80"
    ],
    "infoHash": "55da46a75c806cd077ea6ad63fd7259dcb7c35a4",
    "infoHashBuffer": {
      "type": "Buffer",
      "data": [
        85,
        218,
        70,
        167,
        92,
        128,
        108,
        208,
        119,
        234,
        106,
        214,
        63,
        215,
        37,
        157,
        203,
        124,
        53,
        164
      ]
    },
    "name": "The Fault In Our Stars 2014 HDCAM FIRST CAM x264 Pimp4003",
    "announce": [
      "udp://exodus.desync.com:6969",
      "udp://open.demonii.com:1337",
      "udp://tracker.coppersurfer.tk:6969",
      "udp://tracker.openbittorrent.com:80"
    ],
    "urlList": []
  },
  "previous": 7,
  "peers": 4,
  "last_updated": "2016-12-27T00:40:08.921Z"
}